<svg xmlns="http://www.w3.org/2000/svg" >

    <symbol id="slider-arrow" viewBox="0 0 15 29">
        <path d="M14 28L1.91422 15.9142C1.13317 15.1332 1.13317 13.8668 1.91421 13.0858L14 1" stroke="black" stroke-width="2" stroke-linecap="round"/>
    </symbol>

    <symbol id="player-mute" viewBox="0 0 384 384">
                <g>
                <path d="M288,192c0-37.653-21.76-70.187-53.333-85.867v47.147l52.373,52.373C287.68,201.173,288,196.587,288,192z"/>
                <path d="M341.333,192c0,20.053-4.373,38.933-11.52,56.32l32.32,32.32C376,254.08,384,224,384,192
                c0-91.307-63.893-167.68-149.333-187.093V48.96C296.32,67.307,341.333,124.373,341.333,192z"/>
                <polygon points="192,21.333 147.413,65.92 192,110.507 			"/>
                <path d="M27.2,0L0,27.2L100.8,128H0v128h85.333L192,362.667V219.2l90.773,90.773c-14.293,10.987-30.4,19.84-48.107,25.173V379.2
                c29.333-6.72,56.107-20.16,78.613-38.613L356.8,384l27.2-27.2l-192-192L27.2,0z"/>
                </g>
    </symbol>
    <symbol id="player-sound" viewBox="0 0 384 384">
		<g>
			<path d="M288,192c0-37.653-21.76-70.187-53.333-85.867v171.84C266.24,262.187,288,229.653,288,192z"/>
			<polygon points="0,128 0,256 85.333,256 192,362.667 192,21.333 85.333,128 			"/>
			<path d="M234.667,4.907V48.96C296.32,67.307,341.333,124.373,341.333,192S296.32,316.693,234.667,335.04v44.053
				C320.107,359.68,384,283.413,384,192S320.107,24.32,234.667,4.907z"/>
		</g>

    </symbol>

    <symbol id="player-pause" viewBox="0 0 512 512">
            <g><path d="m437.02 74.98c-48.353-48.351-112.64-74.98-181.02-74.98s-132.667 26.629-181.02 74.98c-48.351 48.353-74.98 112.64-74.98 181.02s26.629 132.667 74.98 181.02c48.353 48.351 112.64 74.98 181.02 74.98s132.667-26.629 181.02-74.98c48.351-48.353 74.98-112.64 74.98-181.02s-26.629-132.667-74.98-181.02zm-181.02 407.02c-124.617 0-226-101.383-226-226s101.383-226 226-226 226 101.383 226 226-101.383 226-226 226z"/><path d="m346 141h-60c-8.284 0-15 6.716-15 15v200c0 8.284 6.716 15 15 15h60c8.284 0 15-6.716 15-15v-200c0-8.284-6.716-15-15-15zm-15 200h-30v-170h30z"/><path d="m226 141h-60c-8.284 0-15 6.716-15 15v200c0 8.284 6.716 15 15 15h60c8.284 0 15-6.716 15-15v-200c0-8.284-6.716-15-15-15zm-15 200h-30v-170h30z"/></g>
    </symbol>
    <symbol id="triangle" viewBox="0 0 8 7">
	    <path d="M4 7L0.102887 0.249999L7.89711 0.25L4 7Z" fill="#365A49"/>
    </symbol>

      <symbol id="payer" viewBox="0 0 384 384">
	    			<path d="M288,192c0-37.653-21.76-70.187-53.333-85.867v171.84C266.24,262.187,288,229.653,288,192z"/>
			<polygon points="0,128 0,256 85.333,256 192,362.667 192,21.333 85.333,128 			"/>
			<path d="M234.667,4.907V48.96C296.32,67.307,341.333,124.373,341.333,192S296.32,316.693,234.667,335.04v44.053
				C320.107,359.68,384,283.413,384,192S320.107,24.32,234.667,4.907z"/>
    </symbol>

    <symbol id="player-play" viewBox="0 0 41.999 41.999">
	    <path d="M36.068,20.176l-29-20C6.761-0.035,6.363-0.057,6.035,0.114C5.706,0.287,5.5,0.627,5.5,0.999v40
	c0,0.372,0.206,0.713,0.535,0.886c0.146,0.076,0.306,0.114,0.465,0.114c0.199,0,0.397-0.06,0.568-0.177l29-20
	c0.271-0.187,0.432-0.494,0.432-0.823S36.338,20.363,36.068,20.176z"/>
    </symbol>

      <symbol id="ingredients-icon-grape" viewBox="0 0 32 32">
        <path d="M20.443 16.7139C22.6035 15.225 22.0963 11.5147 19.5084 10.8008C19.3252 10.7491 18.5973 10.7773 18.508 10.6927C18.3624 10.5518 18.2732 9.88022 18.1605 9.67356C17.8364 9.07708 17.3198 8.59802 16.7139 8.30683C15.4458 7.69626 13.9147 7.95928 12.9706 9.01603C12.0595 7.7855 10.472 7.40976 9.10058 8.072C8.49001 8.36319 7.96398 8.83755 7.62582 9.41994C7.45205 9.72053 7.32524 10.0446 7.25479 10.3875C7.17494 10.7961 7.27827 11.1718 7.24539 11.571C7.22191 11.8481 7.28766 11.7918 6.98708 11.9045C6.818 11.9702 6.65361 12.0501 6.49393 12.144C6.14637 12.3554 5.84578 12.6325 5.60156 12.9565C5.13659 13.5765 4.89706 14.3608 4.92054 15.1358C4.92993 15.488 5.00038 15.8403 5.1225 16.1738C5.19295 16.3663 5.28688 16.5542 5.39021 16.7327C5.43717 16.8078 5.5452 16.9205 5.56868 16.9957C5.63913 17.2117 5.63913 17.0379 5.5358 17.2446C5.33854 17.6297 4.9769 17.9068 4.80312 18.3295C4.62465 18.7569 4.54011 19.2172 4.54481 19.6822C4.5495 20.119 4.63874 20.5511 4.80782 20.9503C4.88766 21.1428 5.01917 21.3072 5.10371 21.4951C5.17416 21.6501 5.23052 21.636 5.19295 21.7675C5.17416 21.8286 4.91115 22.0211 4.87357 22.0634C4.30058 22.6974 3.9953 23.5334 3.99999 24.3741C4.01408 26.1918 5.50762 27.7135 7.34872 27.6195C8.17533 27.5773 8.97377 27.2109 9.54207 26.6051C9.62661 26.5158 9.85674 26.079 9.95537 26.0462C10.0352 26.0227 10.4438 26.234 10.5284 26.2575C10.9605 26.3702 11.416 26.3843 11.8575 26.3045C12.6794 26.1589 13.4309 25.6892 13.9194 25.0129C14.0556 24.8297 14.1307 24.5996 14.2622 24.4211C14.2951 24.3788 14.3186 24.2004 14.3609 24.1769C14.3796 24.1675 14.6661 24.2614 14.7272 24.2708C15.2063 24.3648 15.7088 24.3413 16.1832 24.2098C16.681 24.0689 17.146 23.8059 17.5264 23.4536C17.6297 23.355 17.9444 22.8477 18.0571 22.8055C18.1839 22.7632 18.6113 22.9511 18.7616 22.9698C19.7573 23.0779 20.7671 22.6833 21.4528 21.9601C22.9323 20.382 22.4203 17.6391 20.443 16.7139C20.5699 16.6246 20.6967 16.5401 20.8235 16.4509C20.6967 16.5401 20.5699 16.6246 20.443 16.7139ZM17.8035 13.3511C17.9209 13.2149 18.0383 13.0552 18.1182 12.8955C18.1464 12.8485 18.1699 12.8015 18.1933 12.7499C18.3061 12.5197 18.4 12.2849 18.4564 12.036C18.5362 11.6931 18.4657 11.6462 18.8039 11.6133C19.128 11.5851 19.5178 11.7448 19.7855 11.9045C20.3256 12.2286 20.6779 12.7922 20.8188 13.398C20.955 13.9898 20.8939 14.6379 20.6121 15.1781C20.4618 15.4693 20.2458 15.7229 19.9828 15.9154C19.8935 15.9812 19.1092 16.3569 19.1092 16.2724C19.1092 16.2583 19.1092 16.2395 19.1092 16.2254C19.1139 16.1174 19.1092 16 19.0998 15.892C19.0998 15.8732 19.0951 15.8591 19.0951 15.8403C19.0951 15.8403 19.0951 15.8356 19.0951 15.8309C18.9965 14.8728 18.508 13.9945 17.7143 13.4403C17.7472 13.4168 17.7753 13.3839 17.8035 13.3511C17.8176 13.337 17.7753 13.3839 17.8035 13.3511C17.9209 13.2149 17.7753 13.3839 17.8035 13.3511ZM17.7378 14.746C17.7472 14.7554 17.7519 14.7648 17.7565 14.7741C17.874 14.9385 17.9632 15.117 18.0383 15.3002C18.0477 15.3237 18.0524 15.3424 18.0618 15.3659C18.0665 15.3753 18.0665 15.3847 18.0712 15.3941C18.0759 15.4082 18.0806 15.4223 18.0853 15.4364C18.137 15.5867 18.1605 15.7464 18.1839 15.9013C18.1839 15.9248 18.1886 15.9436 18.1886 15.9671C18.1886 15.9765 18.1886 15.9906 18.1933 16C18.1933 16.0235 18.198 16.0422 18.198 16.0657C18.198 16.0704 18.198 16.0751 18.198 16.0798C18.2074 16.2818 18.2027 16.5213 18.137 16.7139C18.1323 16.7327 18.1323 16.7514 18.1276 16.7655C17.7941 17.5734 17.2775 18.292 16.371 18.4845C15.8074 18.6066 15.1264 18.5033 14.6567 18.1511C14.6192 18.1276 14.5816 18.0994 14.5487 18.0759C13.5859 17.3432 13.4074 16.0235 13.9804 14.9902C14.5722 13.9194 15.6524 13.6047 16.7702 13.9804C16.7937 13.9898 16.8172 14.0039 16.8407 14.0133C16.8642 14.0227 16.8877 14.0368 16.9111 14.0462C16.9158 14.0462 16.9205 14.0509 16.9252 14.0509C16.991 14.0837 17.0567 14.1213 17.1178 14.1636C17.1742 14.2012 17.2305 14.2387 17.2869 14.281C17.3385 14.3186 17.3855 14.3608 17.4325 14.4078C17.4419 14.4172 17.4513 14.4219 17.456 14.4313C17.5217 14.483 17.7143 14.7178 17.7378 14.746C17.7425 14.7554 17.7096 14.7084 17.7378 14.746ZM12.8156 15.2532C12.7875 15.3565 12.764 15.4646 12.7452 15.5679C12.0783 15.5867 11.4912 15.2908 11.0309 14.8258C10.7444 14.5111 10.5472 14.126 10.4579 13.708C10.0211 12.562 11.0826 11.1718 12.1487 10.9041C12.0266 12.0736 12.5667 13.2712 13.5295 13.9522C13.1961 14.328 12.9519 14.7788 12.8156 15.2579C12.8344 15.1922 12.8532 15.1264 12.872 15.0559C12.8532 15.1264 12.8344 15.1875 12.8156 15.2532C12.7875 15.3565 12.9519 14.7695 12.8156 15.2532ZM13.4967 18.3436C12.9659 18.7194 12.4869 19.3017 12.3037 19.9358C12.2286 19.917 12.1534 19.8982 12.0783 19.87C11.8669 19.7996 11.6368 19.7855 11.416 19.7808C11.3268 19.7808 11.2376 19.7808 11.1483 19.7855C11.0779 19.7996 11.0121 19.8043 10.9417 19.8043C10.8853 19.809 10.829 19.8137 10.7773 19.8278C10.7726 19.8278 10.7679 19.8278 10.7679 19.8278C10.7444 19.8372 10.7209 19.8419 10.6974 19.8419C9.93189 19.4239 9.42465 18.5597 9.46692 17.6814V17.6767C9.46692 17.6532 9.46692 17.6297 9.47162 17.6062C9.47162 17.6015 9.47162 17.6015 9.47162 17.5968C9.47162 17.5781 9.47631 17.5593 9.47631 17.5452V17.5405C9.48101 17.4747 9.48571 17.3855 9.50449 17.3197C9.51858 17.2305 9.54207 17.1413 9.56555 17.0567C9.56555 17.052 9.56555 17.052 9.57025 17.0473C9.57025 17.0426 9.57494 17.0379 9.57494 17.0332C9.62191 16.8736 9.69236 16.7327 9.76281 16.5824C9.80038 16.5166 9.83796 16.4509 9.88492 16.3851C10.007 16.1972 10.162 16.0282 10.3405 15.8873C10.3922 15.8356 10.4438 15.7933 10.5096 15.7604C10.5284 15.7464 10.5472 15.7323 10.5659 15.7229C10.58 15.7135 10.5941 15.7041 10.6082 15.6994C11.1859 16.2113 11.9233 16.4931 12.6935 16.4931H12.7076C12.7217 16.6716 12.7405 16.9299 12.825 17.0943C12.8344 17.1272 12.8438 17.1601 12.8579 17.1976C12.8579 17.2023 12.8626 17.2023 12.8626 17.207C12.872 17.2399 12.8861 17.2728 12.8955 17.3104C13.027 17.6861 13.2337 18.0383 13.4967 18.3436ZM13.337 10.0963C13.337 10.0916 13.3417 10.0869 13.3417 10.0822V10.0775C14.4595 8.02973 17.6016 8.94558 17.6297 11.2141C17.6297 11.2188 17.6297 11.2235 17.6297 11.2282V11.2329C17.6297 11.7777 17.4419 12.3037 17.1131 12.7311C17.1084 12.7358 17.1084 12.7358 17.1037 12.7405C17.0286 12.8391 16.9393 12.9284 16.8501 13.0129C16.2301 12.8109 15.3753 12.7734 14.7742 13.074C14.6849 13.1068 14.3421 13.3276 14.2669 13.3229C14.1448 13.3182 13.9569 13.1162 13.8724 13.0458C13.6 12.8156 13.3839 12.5197 13.243 12.191C13.243 12.1863 13.2383 12.1816 13.2383 12.1816C12.9565 11.5147 13.0223 10.6599 13.3182 10.115C13.2947 10.1714 13.2994 10.162 13.337 10.0963C13.337 10.0916 13.2665 10.2278 13.337 10.0963ZM10.411 8.64029C11.2517 8.64029 12.0219 9.11935 12.4211 9.87082C12.4164 9.88022 12.4164 9.88491 12.4117 9.89431C12.407 9.9037 12.4023 9.91779 12.3976 9.92718C10.7585 10.0822 9.50449 11.5475 9.48101 13.1726C9.29314 13.0927 9.10997 12.9753 8.95498 12.8391C8.9362 12.825 8.92211 12.8109 8.90332 12.7968C7.21252 11.5241 8.40547 8.64029 10.411 8.64029ZM7.63991 12.6794C7.64461 12.6841 7.64461 12.6888 7.64931 12.6935C7.70567 12.7922 7.79021 12.9471 7.87475 13.0317C7.88884 13.0505 7.89823 13.0646 7.91232 13.0833C7.92171 13.0927 7.93111 13.1068 7.9405 13.1162C7.95459 13.1303 7.96398 13.1491 7.97807 13.1632C8.227 13.4638 8.55577 13.7503 8.91271 13.9241C9.10058 14.0227 9.48101 14.0696 9.62661 14.2012C9.7769 14.3327 9.87553 14.807 9.99295 14.9949C9.83326 15.0935 9.67827 15.2203 9.54676 15.3565C9.53737 15.3612 9.53267 15.3706 9.52328 15.3753C9.50919 15.3894 9.4998 15.3988 9.48571 15.4129C9.26966 15.6289 9.09119 15.8779 8.94089 16.1503C8.94089 16.155 8.9362 16.1597 8.9362 16.1597C8.88923 16.1972 8.86575 16.2442 8.86575 16.2959C8.85635 16.3194 8.84226 16.3428 8.83287 16.3663C8.83287 16.3663 8.83287 16.3663 8.83287 16.371C8.79999 16.4415 8.77181 16.5166 8.74363 16.5918C8.72015 16.6528 8.69197 16.7186 8.68258 16.7843C8.67788 16.8031 8.67318 16.8219 8.66849 16.8407C8.66379 16.8595 8.65909 16.8783 8.6544 16.897C8.6544 16.9017 8.6497 16.9111 8.6497 16.9158C8.645 16.9299 8.64031 16.944 8.64031 16.9581C8.64031 16.9628 8.64031 16.9628 8.64031 16.9675C8.61682 17.0708 8.60743 17.1788 8.57925 17.2822C8.57925 17.2869 8.57925 17.2869 8.57925 17.2869V17.2916C8.57925 17.2963 8.57925 17.301 8.57925 17.301V17.3104C8.55577 17.315 8.52759 17.3197 8.5041 17.3244C8.32563 17.3526 8.13306 17.3667 7.94989 17.3479H7.9452C7.92171 17.3479 7.90293 17.3432 7.87944 17.3432C7.87475 17.3432 7.87005 17.3432 7.86535 17.3432C7.67749 17.3197 7.48962 17.2728 7.31115 17.2023C7.22661 17.1695 7.14676 17.1319 7.06692 17.0896C7.02465 17.0614 6.98238 17.0379 6.94011 17.0192C6.91663 17.0051 6.89314 16.991 6.86966 16.9722C6.85087 16.9581 6.83209 16.9487 6.818 16.9346C6.818 16.9346 6.818 16.9346 6.8133 16.9346C6.76633 16.897 6.72406 16.8642 6.6771 16.8266C5.23991 15.6289 5.78473 13.0833 7.63991 12.6794C7.63052 12.6653 7.236 12.7687 7.17964 12.7828C7.33463 12.7405 7.48962 12.7123 7.63991 12.6794C7.64461 12.6841 6.60195 12.9049 7.63991 12.6794ZM6.36242 17.7518C6.52211 17.8599 6.83678 18.09 7.03404 18.09C7.31584 18.1933 7.63052 18.2638 7.93111 18.2779C8.0814 18.2873 8.25987 18.3013 8.41017 18.2685C8.52289 18.198 8.57925 18.1933 8.57925 18.2497C8.6544 18.7334 8.83757 19.3205 9.16633 19.6963C9.31193 19.8982 9.47631 20.0814 9.66418 20.2458L9.66888 20.2505C9.19921 20.5417 8.30684 21.3119 8.30684 21.9319C8.19882 21.9601 8.0814 21.9835 7.96868 21.9929C7.95929 21.9929 7.94989 21.9929 7.9405 21.9976C5.6861 22.2043 4.62935 19.1139 6.36242 17.7518C6.36712 17.7565 6.15107 17.9773 6.11819 17.9538C6.11819 17.9538 6.43287 17.7002 6.36242 17.7518C6.44226 17.8035 5.79882 18.198 6.36242 17.7518ZM7.19843 26.7178C6.01017 26.7178 5.09901 25.7738 4.95811 24.6231C4.89236 24.083 4.99569 23.5241 5.28218 23.0591C5.3996 22.8665 5.61565 22.5237 5.83639 22.4485C6.09471 22.3593 6.57377 22.6974 6.87905 22.8008C7.21721 22.8994 7.58825 22.9511 7.9405 22.9182C8.00156 22.9135 8.05792 22.9088 8.11897 22.9041C8.09549 23.3033 8.14715 23.7354 8.28336 24.1111C8.33502 24.2755 8.39608 24.454 8.48532 24.5996C8.60743 24.8391 8.76242 25.0927 8.95498 25.2853C9.18982 25.5577 9.218 25.5436 8.98316 25.8442C8.84696 26.018 8.69197 26.1683 8.51349 26.2951C8.12837 26.5722 7.66809 26.7178 7.19843 26.7178ZM13.5859 23.4677C13.5859 23.4724 13.5859 23.4724 13.5859 23.4677C13.2947 25.2477 11.1061 26.0556 9.78629 24.7968C9.19451 24.2286 8.84696 23.3925 9.06301 22.58C9.26966 21.8145 9.89901 20.9033 10.7585 20.7765C11.1859 20.6638 12.0501 20.6262 12.3976 20.9738C12.3976 20.9738 12.3976 20.9738 12.4023 20.9738C13.2853 21.4575 13.7409 22.5565 13.5906 23.4348C13.5953 23.3925 13.5953 23.4019 13.5859 23.4677C13.5859 23.4724 13.6047 23.3409 13.5859 23.4677ZM15.3331 23.416C15.0607 23.416 14.7882 23.3644 14.5346 23.2657C14.544 23.1389 14.5487 22.9933 14.5346 22.8665C14.5252 22.7303 14.5064 22.5941 14.483 22.4579C14.4783 22.4297 14.4736 22.4015 14.4642 22.3734C14.4642 22.3734 14.4642 22.3734 14.4642 22.3687C14.4595 22.3452 14.4548 22.317 14.4454 22.2935C14.4454 22.2888 14.4454 22.2888 14.4454 22.2888C14.328 21.8567 14.0931 21.1194 13.6939 20.8516C13.6751 20.8282 13.6564 20.8094 13.6376 20.7906C13.6282 20.7812 13.6188 20.7671 13.6094 20.7577C13.4685 20.6074 13.3088 20.4759 13.1444 20.3585C13.1444 20.3538 13.1491 20.3491 13.1491 20.3444C13.1538 20.3303 13.1585 20.3162 13.1632 20.3021C13.2055 20.1612 13.2712 20.0109 13.3464 19.8794C13.4497 19.6822 13.5859 19.499 13.7456 19.344C13.7597 19.3299 13.7691 19.3205 13.7832 19.3064C13.7973 19.2923 13.8066 19.283 13.8207 19.2736C13.8301 19.2642 13.8395 19.2548 13.8536 19.2454C13.8583 19.2407 13.863 19.236 13.8724 19.2313C13.8818 19.2219 13.8959 19.2125 13.9053 19.2031C14.0039 19.1139 14.1213 19.0387 14.2387 18.973C14.746 19.2923 15.319 19.452 15.9201 19.452C15.9201 19.4567 15.9201 19.4661 15.9201 19.4708C15.892 19.9405 15.9577 20.4102 16.1174 20.8516C16.2066 21.0959 16.4509 21.744 16.7092 21.8755C16.7139 21.8849 16.7233 21.8943 16.7327 21.899C16.7468 21.9178 16.7609 21.9319 16.7749 21.946C16.8689 22.0493 16.9675 22.1479 17.0755 22.2372C17.2775 22.3076 17.2916 22.4015 17.1272 22.5237C17.0567 22.6974 16.7984 22.8712 16.6528 22.9792C16.263 23.261 15.8074 23.416 15.3331 23.416ZM19.1139 22.0775C17.6861 22.0775 16.6387 20.6826 16.8548 19.3111C17.2728 19.1796 17.8035 18.9354 18.0806 18.5831C18.1135 18.5503 18.1464 18.5221 18.1746 18.4892C18.1792 18.4845 18.1839 18.4798 18.1886 18.4751C18.2309 18.4329 18.2732 18.3859 18.3108 18.3389C18.3248 18.3248 18.3342 18.3107 18.3483 18.2967C18.353 18.292 18.3577 18.2873 18.3624 18.2779C18.4329 18.1933 18.5268 18.0806 18.5785 17.982C18.6959 17.7988 18.8039 17.6015 18.8791 17.3996C18.8837 17.3855 18.8884 17.3761 18.8931 17.362C20.2035 17.2352 21.3495 18.3436 21.3965 19.6305C21.4434 20.8939 20.4149 22.0775 19.1139 22.0775Z"/>
        <path d="M24.4446 10.7492C24.191 10.7492 23.9844 10.5425 23.9844 10.2889C23.9844 10.0353 24.191 9.82861 24.4446 9.82861C24.6983 9.82861 24.9049 10.0353 24.9049 10.2889C24.9049 10.5425 24.6983 10.7492 24.4446 10.7492Z"/>
        <path d="M27.8027 11.8388C27.3894 10.1386 26.1542 8.68729 24.1252 7.51782C24.4164 7.07633 25.9241 4.18787 24.8532 4.0094C24.2004 3.90138 24.2051 5.03797 24.083 5.43719C23.8763 6.11821 23.571 6.77104 23.1296 7.33464C22.2748 8.45715 20.8517 9.0912 19.4568 9.0912C19.0622 9.06772 18.8227 9.56556 19.0857 9.86145C19.2689 10.0634 19.5789 10.0211 19.8278 10.0071C20.7296 9.95069 21.636 9.66419 22.4063 9.19453C21.5186 12.4916 23.7025 14.9573 26.3045 16.6247C26.3092 16.6294 26.3139 16.6294 26.3186 16.6341C26.3937 16.681 26.5018 16.7045 26.591 16.6951C26.5957 16.6951 26.6051 16.6951 26.6145 16.6904C26.6333 16.6904 26.6474 16.6857 26.6661 16.681C26.6943 16.6763 26.7225 16.6622 26.7507 16.6528C26.7554 16.6528 26.7554 16.6481 26.7601 16.6481C26.7648 16.6481 26.7648 16.6435 26.7695 16.6435C26.8352 16.6106 26.8916 16.5636 26.9339 16.5026C26.9339 16.5026 26.9386 16.4979 26.9386 16.4932C26.9902 16.4086 28.4086 14.3327 27.8027 11.8388C27.3894 10.1386 28.4086 14.3327 27.8027 11.8388ZM26.6521 15.0043C26.4078 14.22 26.1589 13.4356 25.8912 12.656C25.7644 12.2802 25.6047 11.3644 25.1115 11.308C24.3084 11.2188 24.7452 12.1769 24.8767 12.5433C25.1773 13.3793 25.4403 14.2341 25.708 15.0795C24.6701 14.2763 23.6791 13.2665 23.2845 11.9844C22.8994 10.7444 23.2094 9.49511 23.6744 8.32564C26.1166 9.73464 27.7652 12.1393 26.6521 15.0043C26.2669 13.7785 26.6521 15.0043 26.6521 15.0043Z"/>
    </symbol>

    <symbol id="ingredients-icon" viewBox="0 0 46 46">
 <path d="M44.6903 7.1641L38.8069 1.27893C37.9858 0.457505 36.8943 0 35.7301 0C34.5659 0 33.4641 0.457505 32.6429 1.27893C31.7802 2.14195 31.3436 3.29611 31.3644 4.46067C30.2002 4.43987 29.0464 4.87658 28.1837 5.7396C27.3209 6.60262 26.8843 7.75678 26.9051 8.92134C25.7409 8.89015 24.5871 9.33725 23.7244 10.2003C22.8616 11.0633 22.425 12.2175 22.4458 13.382C21.2816 13.3612 20.1278 13.7979 19.2651 14.6609L4.71265 29.2179L0.315736 33.6162C0.191001 33.7306 0.0974494 33.8865 0.0454764 34.0529C0.0454764 34.0737 0.0350818 34.0841 0.0350818 34.1049C-0.0272858 34.344 -0.00649662 34.5832 0.0974494 34.7911C0.118239 34.8431 0.149422 34.8847 0.170212 34.9367C0.305341 35.1343 0.502839 35.2902 0.752309 35.363L4.31766 36.382L5.33633 39.9485C5.42988 40.2916 5.70014 40.5619 6.05355 40.6659L9.6189 41.6849L10.6376 45.2514C10.7103 45.5009 10.8663 45.6985 11.0741 45.8336C11.1157 45.8648 11.1573 45.8856 11.2093 45.9064C11.3444 45.9688 11.4899 46 11.6355 46C11.729 46 11.8226 45.9896 11.9265 45.9584C12.1136 45.9064 12.2695 45.8128 12.3943 45.6777L16.7912 41.2794L23.1007 34.9679C23.2254 35.0927 23.371 35.1759 23.5373 35.2278C23.9011 35.3318 24.2961 35.2382 24.5663 34.9679L32.0816 27.4503C32.487 27.0448 32.487 26.3897 32.0816 25.9842L31.9881 25.8906C32.4247 25.1731 32.6325 24.3517 32.6222 23.5303C33.7863 23.5511 34.9401 23.1144 35.8029 22.2514C36.6656 21.3883 37.1022 20.2342 37.0814 19.0696C38.2456 19.1008 39.3994 18.6537 40.2622 17.7907C41.1249 16.9277 41.5615 15.7735 41.5407 14.609C42.7049 14.6297 43.8587 14.193 44.7215 13.33C45.5426 12.5086 46 11.4064 46 10.2419C45.9688 9.0877 45.5218 7.98553 44.6903 7.1641ZM12.1344 42.9638L11.4484 40.5411C11.3548 40.198 11.0845 39.9277 10.7311 39.8237L7.16578 38.8151L6.14711 35.2486C6.05356 34.9055 5.7833 34.6352 5.42988 34.5312L3.00794 33.8449L5.42988 31.4222L14.5459 40.5411L12.1344 42.9638ZM24.4208 32.1501L21.9781 20.8476C21.8533 20.2862 21.3024 19.9326 20.7411 20.047C20.1798 20.1718 19.8264 20.7229 19.9407 21.2844L22.4043 32.6908L16.022 39.075L6.90591 29.9561L19.9927 16.8653L29.8468 26.7224L24.4208 32.1501ZM43.2246 11.8639C42.5282 12.5606 41.468 12.7373 40.5948 12.2902C40.1998 12.0927 39.7113 12.1655 39.3994 12.4878C39.0876 12.8101 39.0044 13.2884 39.2019 13.6835C39.6385 14.5674 39.4618 15.6279 38.7758 16.3142C38.0897 17.0005 37.0191 17.1876 36.1459 16.7405C35.7509 16.5429 35.2624 16.6157 34.9505 16.9381C34.6387 17.25 34.5555 17.7387 34.753 18.1338C35.1896 19.0176 35.0129 20.0782 34.3269 20.7645C33.6304 21.4611 32.5702 21.6379 31.697 21.1908C31.302 20.9932 30.8135 21.066 30.5017 21.3883C30.1898 21.7003 30.1067 22.189 30.3042 22.5841C30.5744 23.1352 30.616 23.7486 30.4289 24.3101L21.6662 15.5448C22.2276 15.368 22.8408 15.3992 23.3917 15.6695C23.7867 15.8671 24.2753 15.7943 24.5871 15.472C24.899 15.1496 24.9821 14.6713 24.7846 14.2762C24.348 13.3924 24.5248 12.3318 25.2108 11.6456C25.8968 10.9593 26.9675 10.7722 27.8406 11.2193C28.2356 11.4168 28.7242 11.344 29.036 11.0217C29.3479 10.7098 29.431 10.2211 29.2335 9.82595C28.7969 8.94213 28.9736 7.88155 29.6597 7.1953C30.3561 6.49864 31.4164 6.32188 32.2895 6.76899C32.6845 6.96655 33.1731 6.89376 33.4849 6.57143C33.7967 6.25949 33.8799 5.7708 33.6824 5.37568C33.2458 4.49186 33.4225 3.43128 34.1086 2.74503C34.5452 2.30832 35.1169 2.07957 35.7301 2.07957C36.3434 2.07957 36.9151 2.31872 37.3517 2.74503L43.2246 8.6302C43.6612 9.06691 43.8899 9.63879 43.8899 10.2523C43.8899 10.8553 43.6508 11.4376 43.2246 11.8639Z" fill="white"/>
    </symbol>

   <symbol id="cross-icon" viewBox="0 0 512 512">
		<path d="M256,0C114.508,0,0,114.497,0,256c0,141.493,114.497,256,256,256c141.492,0,256-114.497,256-256
			C512,114.507,397.503,0,256,0z M256,472c-119.384,0-216-96.607-216-216c0-119.385,96.607-216,216-216
			c119.384,0,216,96.607,216,216C472,375.385,375.393,472,256,472z"/>

		<path d="M343.586,315.302L284.284,256l59.302-59.302c7.81-7.81,7.811-20.473,0.001-28.284c-7.812-7.811-20.475-7.81-28.284,0
			L256,227.716l-59.303-59.302c-7.809-7.811-20.474-7.811-28.284,0c-7.81,7.811-7.81,20.474,0.001,28.284L227.716,256
			l-59.302,59.302c-7.811,7.811-7.812,20.474-0.001,28.284c7.813,7.812,20.476,7.809,28.284,0L256,284.284l59.303,59.302
			c7.808,7.81,20.473,7.811,28.284,0C351.398,335.775,351.397,323.112,343.586,315.302z"/>
    </symbol>

    <symbol id="s-inst" viewBox="0 0 20 20">
        <path d="M17.6022 0H2.39782C1.08992 0 0 1.03542 0 2.34332V17.6567C0 18.9646 1.08992 20 2.39782 20H17.6022C18.9101 20 20 18.9646 20 17.6567V2.34332C20 1.03542 18.9101 0 17.6022 0ZM14.3869 3.10627C14.3869 2.77929 14.6594 2.50681 14.9864 2.50681H16.8937C17.2207 2.50681 17.4932 2.77929 17.4932 3.10627V4.95913C17.4932 5.2861 17.2207 5.55858 16.8937 5.55858H15.0409C14.7139 5.55858 14.4414 5.2861 14.4414 4.95913L14.3869 3.10627ZM10.0272 6.15804C12.1526 6.15804 13.8965 7.84741 13.8965 9.97275C13.8965 12.0981 12.1526 13.7875 10.0272 13.7875C7.90191 13.7875 6.15804 12.0981 6.15804 9.97275C6.15804 7.90191 7.90191 6.15804 10.0272 6.15804ZM18.0926 17.4932C18.0926 17.8202 17.8202 18.0926 17.4932 18.0926H2.50681C2.17984 18.0926 1.90736 17.8202 1.90736 17.4932V8.11989H4.35967C4.0327 8.61035 3.92371 9.48229 3.92371 10.0272C3.92371 13.3515 6.6485 16.0763 10.0272 16.0763C13.406 16.0763 16.1308 13.3515 16.1308 10.0272C16.1308 9.48229 16.0763 8.61035 15.6403 8.11989H18.1471L18.0926 17.4932Z" />
    </symbol>

    <symbol id="s-twit" viewBox="0 0 20 18">
        <path d="M19.455 1.01613C18.6376 1.5066 17.7657 1.83357 16.8392 2.05155C16.0763 1.23412 15.0409 0.743652 13.842 0.743652C11.5531 0.743652 9.75477 2.65101 9.75477 4.93984C9.75477 5.26681 9.80926 5.59379 9.86376 5.92076C6.43052 5.70278 3.43324 4.01341 1.41689 1.4521C1.08992 2.05155 0.871935 2.8145 0.871935 3.57744C0.871935 5.04883 1.58038 6.30224 2.7248 7.06518C2.07084 7.06518 1.41689 6.84719 0.871935 6.52022V6.62921C0.871935 8.64556 2.28883 10.3894 4.14169 10.7709C3.81471 10.8799 3.43324 10.9344 3.05177 10.9344C2.77929 10.9344 2.50681 10.9344 2.28883 10.8799C2.83379 12.5693 4.30518 13.7682 6.10354 13.8227C4.68665 14.9671 2.94278 15.621 0.980926 15.621C0.653951 15.621 0.326975 15.621 0 15.5665C1.79837 16.7654 3.9782 17.4739 6.26703 17.4739C13.842 17.4739 17.9292 11.0434 17.9292 5.4848C17.9292 5.32131 17.9292 5.10332 17.9292 4.93984C18.7466 4.34038 19.455 3.63194 20 2.76C19.2916 3.08698 18.4741 3.30496 17.6567 3.41395C18.4741 2.8145 19.1281 1.99706 19.455 1.01613Z" />
    </symbol>

    <symbol id="s-vk" viewBox="0 0 20 12">
        <path d="M19.891 10.6049C19.891 10.5504 19.8365 10.4959 19.8365 10.4959C19.5095 9.89646 18.8011 9.07902 17.8202 8.20708C17.3842 7.77111 17.1117 7.49864 17.0027 7.33515C16.7847 7.06267 16.7302 6.79019 16.8392 6.51771C16.9482 6.29973 17.2207 5.86376 17.7657 5.15531C18.0381 4.77384 18.2561 4.50136 18.4196 4.28338C19.6185 2.703 20.1635 1.66757 20 1.23161L19.9455 1.12261C19.891 0.959126 19.782 0.90463 19.6185 0.850135C19.455 0.795639 19.2371 0.795639 18.9646 0.850135H15.9673C15.9128 0.850135 15.8583 0.850135 15.7493 0.850135C15.6403 0.850135 15.6403 0.904631 15.6403 0.904631H15.5858L15.5313 0.959127C15.4768 0.959127 15.4768 1.01362 15.4223 1.06812C15.3678 1.12261 15.3678 1.17711 15.3134 1.23161C14.9864 2.04904 14.6049 2.86648 14.2234 3.57493C13.951 4.0109 13.733 4.39237 13.515 4.71934C13.297 5.04632 13.1335 5.2643 12.97 5.42779C12.8065 5.59128 12.6975 5.70027 12.5886 5.80926C12.4796 5.91825 12.3706 5.91825 12.3161 5.91825C12.2616 5.91825 12.2071 5.86376 12.1526 5.86376C12.0436 5.80926 11.9891 5.70027 11.9346 5.59128C11.8801 5.48229 11.8256 5.3733 11.8256 5.20981C11.8256 5.04632 11.7711 4.88283 11.7711 4.77384C11.7711 4.66485 11.7711 4.50136 11.7711 4.28338C11.7711 4.06539 11.7711 3.90191 11.7711 3.84741C11.7711 3.57493 11.7711 3.30245 11.7711 2.97548C11.7711 2.6485 11.7711 2.43052 11.7711 2.26703C11.7711 2.10354 11.7711 1.88556 11.7711 1.66757C11.7711 1.44959 11.7711 1.2861 11.7166 1.17711C11.7166 1.06812 11.6621 0.959126 11.6076 0.850135C11.5531 0.741143 11.4986 0.632151 11.3896 0.577655C11.2807 0.523159 11.1717 0.468664 11.0627 0.414168C10.6812 0.305176 10.2452 0.305176 9.64578 0.305176C8.33788 0.305176 7.52044 0.359671 7.13896 0.577655C6.97548 0.632151 6.86648 0.741143 6.75749 0.904631C6.6485 1.06812 6.59401 1.12261 6.703 1.17711C7.13896 1.23161 7.41144 1.39509 7.57493 1.61308L7.62943 1.72207C7.68392 1.83106 7.73842 1.99455 7.79292 2.21253C7.84741 2.43052 7.84741 2.703 7.90191 2.97548C7.9564 3.46594 7.9564 3.90191 7.90191 4.28338C7.84741 4.66485 7.84741 4.93733 7.79292 5.10082C7.73842 5.3188 7.73842 5.48229 7.62943 5.59128C7.57493 5.70027 7.52044 5.80926 7.52044 5.80926C7.52044 5.86376 7.46594 5.86376 7.46594 5.86376C7.35695 5.91825 7.30245 5.91825 7.19346 5.91825C7.08447 5.91825 6.97548 5.86376 6.86649 5.75477C6.703 5.64577 6.59401 5.53678 6.43052 5.3733C6.26703 5.20981 6.10354 4.99182 5.94005 4.66485C5.77657 4.33787 5.55858 4.0109 5.3406 3.57493L5.17711 3.24795C5.06812 3.02997 4.90463 2.75749 4.74114 2.37602C4.57766 1.99455 4.41417 1.66757 4.25068 1.2861C4.19619 1.17711 4.08719 1.06812 3.9782 0.959127H3.92371C3.86921 0.904631 3.81471 0.90463 3.76022 0.850135C3.70572 0.850135 3.59673 0.795639 3.54223 0.795639H0.708447C0.381471 0.795639 0.163488 0.904631 0.0544959 1.01362V1.06812C0 1.12261 0 1.17711 0 1.23161C0 1.2861 0 1.39509 0.0544959 1.50409C0.490463 2.48501 0.92643 3.41144 1.41689 4.33787C1.90736 5.2643 2.34332 5.97275 2.6703 6.51771C3.05177 7.06267 3.37875 7.60763 3.76022 8.09809C4.14169 8.58855 4.35967 8.91553 4.52316 9.02452C4.63215 9.18801 4.74114 9.24251 4.79564 9.3515L5.06812 9.62398C5.23161 9.78746 5.50409 10.0054 5.77657 10.2234C6.10354 10.4414 6.43052 10.6594 6.86649 10.9319C7.24796 11.1499 7.73842 11.3678 8.22888 11.4768C8.77384 11.6403 9.26431 11.6948 9.75477 11.6403H10.9537C11.1717 11.6403 11.3896 11.5313 11.4986 11.4223L11.5531 11.3678C11.6076 11.3133 11.6076 11.2589 11.6076 11.1499C11.6076 11.0409 11.6621 10.9864 11.6621 10.8774C11.6621 10.6049 11.6621 10.3324 11.7166 10.0599C11.7711 9.84196 11.8256 9.62398 11.8801 9.51498C11.9346 9.40599 12.0436 9.297 12.0981 9.18801C12.2071 9.07902 12.2616 9.07902 12.2616 9.02452C12.3161 9.02452 12.3161 8.97003 12.3706 8.97003C12.5341 8.91553 12.752 8.97003 12.97 9.13351C13.188 9.297 13.406 9.51499 13.624 9.73297C13.842 9.95095 14.0599 10.2234 14.3324 10.5504C14.6049 10.8229 14.8774 11.0954 15.0409 11.2044L15.2589 11.3133C15.4223 11.4223 15.5858 11.4768 15.8038 11.5313C16.0218 11.5858 16.2398 11.6403 16.4033 11.5858L19.0736 11.5313C19.346 11.5313 19.564 11.4768 19.673 11.4223C19.8365 11.3133 19.891 11.2589 19.9455 11.1499C20 11.0409 20 10.9319 19.9455 10.7684C19.9455 10.7684 19.9455 10.6594 19.891 10.6049Z"/>
    </symbol>

    <symbol id="s-fb" viewBox="0 0 20 20">
        <path d="M20 18.9101C20 19.5095 19.5095 20 18.9101 20H13.7875V12.2616H16.4033L16.7847 9.26431H13.7875V7.35695C13.7875 6.48501 14.0054 5.88556 15.2589 5.88556H16.8392V3.16076C16.5668 3.10627 15.6403 3.05177 14.4959 3.05177C12.2071 3.05177 10.6267 4.46866 10.6267 7.02997V9.26431H8.0109V12.2616H10.6267V20H1.08992C0.490463 20 0 19.5095 0 18.9101V1.08992C0 0.490463 0.490463 0 1.08992 0H18.9101C19.5095 0 20 0.490463 20 1.08992V18.9101Z" />
    </symbol>

    <symbol id="checkmark" viewBox="0 0 10 8">
        <path d="M9.44954 0.551587C8.80734 -0.184046 7.70642 -0.184046 7.06422 0.459633L3.66973 3.86193L2.93578 3.1263C2.29358 2.48262 1.19266 2.48262 0.550461 3.1263H0.458717C-0.183484 3.76998 -0.183484 4.87343 0.458717 5.5171L2.47707 7.54009C2.84404 7.90791 3.30275 7.99986 3.66973 7.99986C4.12844 7.99986 4.49542 7.81595 4.86239 7.54009L9.44954 2.94239C10.0917 2.29871 10.0917 1.19526 9.44954 0.551587Z" />
    </symbol>

    <symbol id="measure" viewBox="0 0 37 37">
        <path d="M10.5679 7.16711C10.5679 7.65294 11.5396 8.13878 12.9971 8.13878C14.4546 8.13878 15.4263 7.65294 15.4263 7.16711C15.4263 6.68127 14.4546 6.19543 12.9971 6.19543C11.7825 6.19543 10.5679 6.43835 10.5679 7.16711Z" fill="#C6F7FF"/>
        <path d="M36.8031 16.1551C36.8031 13.7259 34.8597 11.7825 32.4306 11.7825H31.4589H10.0821C10.0821 11.7825 4.25207 12.0254 1.57998 7.41001C1.82289 4.00916 4.49499 1.57998 7.89584 1.57998H17.6126C21.2563 1.57998 23.9284 4.49499 23.9284 7.89584V9.11043H25.143V8.13876C25.143 3.76624 21.7422 0.365387 17.3696 0.365387H8.13876C3.76624 0.365387 0.365387 3.76624 0.365387 8.13876V11.2967V11.7825V19.5559C0.365387 23.9284 3.76624 27.3293 8.13876 27.3293H9.83919V26.1147H7.89584C4.25207 26.1147 1.57998 23.1997 1.57998 19.7988V11.7825V11.2967V9.59627C2.30873 10.5679 4.73791 12.9971 9.83919 12.9971C17.1267 12.9971 31.216 12.9971 31.216 12.9971H32.4306C34.131 12.9971 35.3456 14.2117 35.3456 15.9121V17.3696V17.8555C35.3456 19.5559 34.131 20.7705 32.4306 20.7705H32.1876H16.8838C14.4546 20.7705 12.5113 22.7138 12.5113 25.143V31.7018C12.5113 34.131 14.4546 36.0743 16.8838 36.0743H32.4306C34.8597 36.0743 36.8031 34.131 36.8031 31.7018V25.143C36.8031 25.143 36.8031 19.313 36.8031 17.6126C36.8031 17.6126 36.8031 17.6126 36.8031 17.3696V16.1551ZM35.3456 32.1876C35.3456 33.8881 34.131 35.1027 32.4306 35.1027H16.6409C14.9405 35.1027 13.7259 33.8881 13.7259 32.1876V25.143C13.7259 23.4426 14.9405 22.228 16.6409 22.228H21.2563V26.3576H22.4709V22.228H28.058H30.2443V26.3576H31.4589V22.228H32.4306C33.6451 22.228 34.8597 21.7422 35.5885 21.0134V32.1876H35.3456Z" fill="#C6F7FF"/>
    </symbol>
    <symbol id="track" viewBox="0 0 40 32">
        <path d="M6.84767 12.6328L9.01168 10.9016H9.22808C9.87729 10.9016 10.3101 10.4688 10.3101 9.81963C10.3101 9.38683 10.0937 9.17043 9.87729 8.95403V4.40961H8.79528V8.95403C8.36248 9.17043 8.14608 9.38683 8.14608 9.81963V10.036L5.98207 11.7672L6.84767 12.6328Z" fill="#C6F7FF"/>
        <path d="M39.7406 24.3185V17.3936C39.7406 15.2296 38.875 14.364 38.875 14.364C38.875 14.364 36.711 11.5508 35.4126 9.81961C34.1142 8.08841 32.383 8.08841 32.383 8.08841H25.0254V7.0064C25.0254 5.49159 23.9434 4.40959 22.4285 4.40959H16.1529C14.6381 2.24558 12.0413 0.730774 9.22809 0.730774C4.46727 0.730774 0.788452 4.62599 0.788452 9.38681C0.788452 11.3344 1.43765 13.0656 2.51966 14.5804V24.1021C2.51966 25.6169 3.60166 26.6989 5.11647 26.6989H6.19848V26.9153C6.19848 29.5121 8.36249 31.6761 10.9593 31.6761C13.5561 31.6761 15.7201 29.5121 15.7201 26.9153C15.7201 26.6989 15.7201 26.6989 15.7201 26.6989H22.2121H22.4285C23.0777 26.6989 24.5926 26.6989 26.5402 26.6989V26.9153C26.5402 29.5121 28.7042 31.6761 31.301 31.6761C33.8978 31.6761 36.0618 29.5121 36.0618 26.9153C36.0618 26.6989 36.0618 26.6989 36.0618 26.6989C36.2782 26.6989 36.4946 26.6989 36.4946 26.6989C40.1734 26.9153 39.7406 24.3185 39.7406 24.3185ZM38.6586 16.7444C38.6586 16.7444 38.6586 16.9608 38.6586 17.3936H30.219C29.7862 17.3936 29.3534 16.9608 29.3534 16.528V13.0656C29.3534 12.6328 29.7862 12.2 30.219 12.2H35.8454C36.4946 12.8492 37.1438 13.7148 37.5766 14.364C38.6586 15.6624 38.6586 16.7444 38.6586 16.7444ZM9.22809 2.02918C13.3397 2.02918 16.8021 5.27519 16.8021 9.60321C16.8021 13.9312 13.3397 16.9608 9.22809 16.9608C5.11647 16.9608 1.87046 13.4984 1.87046 9.38681C1.87046 5.27519 5.11647 2.02918 9.22809 2.02918ZM10.7429 30.5941C8.79529 30.5941 7.28048 29.0793 7.28048 27.1317C7.28048 25.1841 8.79529 23.6693 10.7429 23.6693C12.6905 23.6693 14.2053 25.1841 14.2053 27.1317C14.2053 29.0793 12.6905 30.5941 10.7429 30.5941ZM15.0709 25.6169C14.4217 23.8857 12.6905 22.3709 10.7429 22.3709C8.79529 22.3709 7.06408 23.6693 6.41488 25.6169H4.90007C4.25087 25.6169 3.60166 24.9677 3.60166 24.3185V15.6624C5.11647 16.9608 7.06408 17.8264 9.22809 17.8264C13.9889 17.8264 17.6677 13.9312 17.6677 9.38681C17.6677 8.08841 17.2349 6.79 16.8021 5.708H22.4285C23.0777 5.708 23.7269 6.3572 23.7269 7.0064V24.3185C23.7269 24.9677 23.0777 25.6169 22.4285 25.6169H15.0709ZM31.0846 30.5941C29.137 30.5941 27.6222 29.0793 27.6222 27.1317C27.6222 25.1841 29.137 23.6693 31.0846 23.6693C33.0322 23.6693 34.547 25.1841 34.547 27.1317C34.547 29.0793 33.0322 30.5941 31.0846 30.5941ZM36.4946 25.8333H35.629C34.9798 23.8857 33.2486 22.5873 31.301 22.5873C29.137 22.5873 27.4058 23.8857 26.973 25.8333H24.809C25.2418 25.4005 25.4582 24.9677 25.4582 24.3185V8.95401C25.4582 8.95401 30.219 8.95401 32.1666 8.95401C34.1142 8.95401 34.9798 10.2524 34.9798 10.2524C34.9798 10.2524 34.7634 10.6852 35.1962 11.118H30.219C29.137 11.118 28.4878 11.9836 28.4878 12.8492V16.3116C28.4878 17.3936 29.3534 18.0428 30.219 18.0428H38.875C38.875 19.7741 38.875 22.3709 38.875 23.6693C38.6586 26.0497 36.4946 25.8333 36.4946 25.8333Z" fill="#C6F7FF"/>
    </symbol>

    <symbol id="leaf" viewBox="0 0 39 37">
        <path d="M5.68662 22.4709C5.68662 22.9568 5.92954 23.4426 5.92954 23.9284C5.92954 25.8718 6.17246 29.0297 6.17246 29.0297H7.38704C7.38704 29.0297 7.38704 23.9284 6.65829 21.2563C5.92954 18.3413 5.68662 12.9971 7.38704 9.11043L6.17246 8.6246C6.17246 8.6246 4.71495 11.5396 4.71495 16.1551C4.71495 19.0701 4.95787 20.2847 5.20078 21.4992C4.22911 20.7705 1.55701 18.3413 1.79993 13.24C2.28577 7.41001 7.38704 2.06581 7.38704 2.06581C7.38704 2.06581 16.375 10.5679 8.35872 20.0417L9.33039 20.7705C9.33039 20.7705 12.9742 16.6409 12.9742 12.0254C12.9742 7.41001 11.0308 3.52332 7.38704 0.365387C7.38704 0.365387 1.07118 6.43834 0.585343 13.7259C0.342425 20.5276 5.4437 22.9568 5.4437 22.9568L5.68662 22.4709Z" fill="#C6F7FF"/>
        <path d="M18.3183 16.1551C9.33038 18.8272 9.81622 27.5722 10.0591 29.5156C6.9012 32.6735 5.4437 35.5885 5.4437 35.5885L6.41537 36.0743C15.6462 20.7705 29.9784 23.6855 29.9784 23.6855V22.4709C21.2334 21.4993 15.1604 24.9001 11.0308 28.301C10.7879 25.143 12.2454 17.6126 21.4763 16.8838C32.1647 16.6409 37.2659 22.9568 37.2659 22.9568C31.6788 31.9447 25.363 33.1593 21.4763 33.6452C17.3467 34.3739 12.2454 31.4589 12.2454 31.4589L11.7596 32.4306C11.7596 32.4306 16.1321 35.3456 21.7192 34.8597C33.8651 33.4022 38.4805 22.7138 38.4805 22.7138C37.2659 20.2847 28.278 13.7259 18.3183 16.1551Z" fill="#C6F7FF"/>
    </symbol>

    <symbol id="happy_person" viewBox="0 0 65 69">
        <path d="M60.03 19.665C60.72 18.975 61.41 18.285 61.755 17.595C64.17 14.49 63.825 13.11 61.41 11.04C58.995 8.97 55.2 12.075 55.2 12.075C55.2 12.075 54.855 12.42 54.51 12.765C50.715 9.315 45.885 6.555 40.365 5.175C38.295 2.07 35.19 0 31.74 0C27.945 0 24.84 2.415 22.77 5.52C18.285 6.9 14.145 9.315 10.695 12.42C10.005 12.075 8.625 10.695 6.9 10.35C4.485 10.005 2.07 11.73 1.725 14.145C1.725 15.525 3.105 17.595 4.83 19.665C1.725 24.495 0 30.015 0 36.225C0 53.82 14.49 68.31 32.43 68.31C38.64 68.31 44.85 66.585 49.68 63.48L48.645 61.065C44.16 49.68 45.195 42.435 45.54 38.985C46.575 35.19 50.37 30.015 52.44 27.255C53.82 25.53 55.89 23.805 57.96 21.735C60.72 25.875 62.1 30.705 62.1 36.225C62.1 44.16 58.65 51.405 53.475 56.925L55.545 58.65C61.41 52.785 64.86 44.85 64.86 36.225C64.86 30.015 63.135 24.495 60.03 19.665ZM31.74 2.76C36.225 2.76 39.675 6.9 39.675 12.075C39.675 17.25 36.225 21.39 31.74 21.39C27.255 21.39 23.805 17.595 23.805 12.075C23.805 6.555 27.255 2.76 31.74 2.76ZM31.74 24.15C37.605 24.15 42.435 18.63 42.435 12.075C42.435 10.695 42.09 9.66 41.745 8.28C45.885 9.66 49.335 11.73 52.44 14.49C49.68 16.905 45.54 20.01 43.47 21.39C40.365 23.805 35.19 26.22 31.05 26.22C26.91 26.22 24.84 24.495 21.735 23.115C18.975 21.735 14.49 16.56 12.42 14.49C15.18 12.075 18.285 10.35 21.39 8.97C21.39 10.005 21.045 11.04 21.045 12.075C21.045 18.975 25.875 24.15 31.74 24.15ZM2.76 36.225C2.76 31.05 4.14 26.22 6.555 21.735C7.245 22.425 7.59 22.77 7.59 22.77C7.59 22.77 16.215 32.775 17.94 35.19C19.665 37.605 17.595 39.33 16.215 45.54C15.18 50.37 15.18 56.925 15.18 60.03C7.59 54.51 2.76 45.885 2.76 36.225ZM56.235 19.665C54.855 21.045 50.025 25.185 45.885 31.74C41.745 38.295 42.435 43.47 42.78 47.265C43.125 51.06 44.16 54.51 44.505 55.89C44.85 56.925 46.23 60.72 46.575 61.755C42.435 63.825 37.605 65.205 32.775 65.205C27.255 65.205 22.425 63.825 17.94 61.41C17.94 49.68 18.63 47.955 18.975 46.23C18.975 44.505 20.01 41.055 21.045 38.295C21.735 35.88 20.7 33.81 19.665 32.775C18.63 31.74 8.625 19.665 6.9 17.25C4.83 14.835 4.485 13.8 6.21 13.11C7.935 12.075 12.42 17.595 14.49 20.01C16.215 22.425 24.15 28.98 31.395 28.635C38.64 28.29 43.815 24.495 45.885 23.115C47.61 21.735 56.58 14.49 57.96 13.455C59.34 12.42 61.065 13.455 60.72 14.49C60.375 15.525 57.615 18.285 56.235 19.665Z" fill="#292929"/>
    </symbol>


    <symbol id="smile" viewBox="0 0 64 64">
        <path d="M32 0C14.4314 0 0 14.4314 0 32C0 49.5686 14.4314 64 32 64C49.5686 64 64 49.5686 64 32C64 14.4314 49.5686 0 32 0ZM32 61.4902C15.6863 61.4902 2.5098 48.3137 2.5098 32C2.5098 15.6863 15.6863 2.5098 32 2.5098C48.3137 2.5098 61.4902 15.6863 61.4902 32C61.4902 48.3137 48.3137 61.4902 32 61.4902Z" fill="#292929"/>
        <path d="M32 48.6275C21.0196 48.6275 14.4314 38.902 14.4314 38.902L12.2353 40.4706C21.0196 51.7647 32 51.451 32 51.451C32 51.451 42.9804 52.0785 51.7647 40.4706L49.5686 38.902C49.5686 38.902 42.9804 48.6275 32 48.6275Z" fill="#292929"/>
        <path d="M21.3333 35.451C28.8627 32 30.1176 27.6078 30.1176 25.4118C30.1176 22.902 28.549 20.0784 25.7255 20.0784C22.5882 20.0784 21.3333 21.6471 21.3333 21.6471C21.3333 21.6471 20.0784 20.0784 16.9412 20.0784C14.1176 20.0784 12.549 23.2157 12.549 25.4118C12.549 27.6078 13.8039 32 21.3333 35.451ZM21.3333 24.7843C22.902 22.2745 27.2941 21.9608 27.6078 25.098C27.6078 29.4902 21.3333 32.6275 21.3333 32.6275C21.3333 32.6275 15.0588 29.4902 15.0588 25.098C15.3725 21.9608 19.7647 22.2745 21.3333 24.7843Z" fill="#292929"/>
        <path d="M42.6667 35.451C50.1961 32 51.451 27.6078 51.451 25.7255C51.451 23.2157 49.8824 20.3922 47.0588 20.3922C43.9216 20.3922 42.6667 21.9608 42.6667 21.9608C42.6667 21.9608 41.4118 20.3922 38.2745 20.3922C35.451 20.3922 33.8824 23.5294 33.8824 25.7255C33.8824 27.6078 35.1373 32 42.6667 35.451ZM42.6667 24.7843C44.2353 22.2745 48.6274 21.9608 48.9412 25.098C48.9412 29.4902 42.6667 32.6274 42.6667 32.6274C42.6667 32.6274 36.3922 29.4902 36.3922 25.098C36.7059 21.9608 41.098 22.2745 42.6667 24.7843Z" fill="#292929"/>
    </symbol>

    <symbol id="phone" viewBox="0 0 14 15">
        <path d="M13.7455 13.0923C13.4909 13.5935 12.9818 13.8441 12.4727 14.0947C11.8364 14.4706 11.3273 14.5959 10.6909 14.5959C9.8 14.5959 8.90909 14.22 8.14545 13.9694C7.50909 13.7188 7 13.4682 6.36364 13.2176C4.58182 12.09 2.54545 10.0853 1.52727 8.45643C1.14545 7.82996 0.890909 7.32878 0.636364 6.70231C0.381818 5.82525 0 5.07349 0 4.07113C0 3.44466 0.127273 2.81819 0.509091 2.19172C0.763636 1.69054 1.01818 1.18936 1.52727 0.938771C1.90909 0.938771 2.54545 0.813477 2.92727 0.813477C3.05455 0.813477 3.05455 0.813477 3.18182 0.813477C3.43636 0.938771 3.56364 1.31465 3.69091 1.56524C3.94545 2.19172 4.32727 2.69289 4.58182 3.31936C4.83636 3.56995 5.09091 3.82054 5.09091 4.07113C5.09091 4.6976 3.30909 5.57466 3.30909 6.07584C3.30909 6.32643 3.56364 6.70231 3.69091 6.9529C4.70909 8.70702 5.98182 9.95997 7.76364 10.9623C8.01818 11.0876 8.4 11.3382 8.65455 11.3382C9.16364 11.3382 10.0545 9.58408 10.6909 9.58408C10.9455 9.58408 11.2 9.83467 11.4545 10.0853C11.9636 10.4611 12.6 10.7117 13.1091 11.0876C13.3636 11.2129 13.7455 11.3382 13.8727 11.5888C13.8727 11.7141 13.8727 11.7141 13.8727 11.8394C14 12.09 13.8727 12.7164 13.7455 13.0923Z"/>
    </symbol>

    <symbol id="strong_arm" viewBox="0 0 64 54">
        <path d="M49.9372 8.44973C43.9103 8.44973 36.1614 12.7547 36.4484 21.6515C36.4484 21.6515 24.6816 17.9206 21.2377 30.2614C21.2377 30.2614 19.2287 25.9565 16.6457 23.9475C13.7758 21.9385 10.3318 16.7726 10.0448 14.1896C10.3318 12.7547 10.6188 12.7547 11.1928 12.4677C11.4798 12.4677 11.4798 14.7636 14.0628 15.0506C16.3587 14.7636 16.9327 14.1896 17.7937 13.0417L20.3767 10.1717C20.3767 10.1717 22.9596 6.72776 20.6637 5.00578C18.6547 2.99681 14.9238 -0.734128 10.3318 0.126858C7.74888 0.700849 5.73991 2.70982 5.73991 2.70982L2.29596 5.86677C2.29596 5.86677 0 8.16273 0 12.7547C0 16.7726 0.860987 23.3735 0.860987 23.3735C0.860987 23.3735 1.72197 28.5394 2.00897 30.2614C2.29596 31.9834 4.59193 42.0282 10.0448 47.4811C13.4888 51.4991 15.4978 53.221 17.2197 53.508C20.0897 53.508 21.5247 51.7861 23.8206 51.7861C26.1166 51.7861 28.4126 53.508 33.2915 53.508C38.1704 53.508 49.0762 50.6381 53.6682 36.5753C57.9731 34.8533 64 31.6964 64 22.2255C64 12.7547 55.6771 8.44973 49.9372 8.44973ZM51.9462 34.8533C48.7892 47.4811 38.7444 50.9251 33.8655 51.4991C29.2735 51.4991 26.6906 49.7771 23.2466 49.7771C21.2377 49.7771 18.3677 51.4991 17.5067 51.4991C16.6457 51.4991 14.3498 49.4901 11.4798 46.3331C8.60987 43.1762 7.46188 40.3062 6.3139 38.0103C5.16592 35.7143 3.15695 26.5304 3.15695 26.5304C3.15695 26.5304 2.29596 17.3466 2.29596 13.3287C2.29596 9.59771 4.01794 7.30175 4.01794 7.30175C4.01794 7.30175 6.3139 5.29278 8.60987 3.28381C11.1928 1.27484 14.3498 2.70982 14.3498 2.70982C14.3498 2.70982 17.5067 4.71879 18.6547 5.86677C20.0897 7.01475 18.6547 8.16273 18.6547 8.16273C18.6547 8.16273 15.4978 12.1807 14.3498 12.4677C12.9148 12.7547 12.6278 9.31072 12.6278 9.31072C11.1928 9.88471 8.89686 10.4587 8.03587 13.0417C7.17489 16.1986 11.7668 22.7995 15.2108 25.9565C18.3677 29.1134 20.3767 34.2793 20.3767 34.2793L22.9596 33.4183C22.9596 33.4183 22.6726 27.3914 27.8386 24.2345C33.5785 21.0775 38.7444 25.3825 38.7444 25.3825C37.0224 11.0327 49.6502 10.7457 50.5112 10.7457C51.3722 10.7457 61.417 11.6067 62.278 21.6515C61.704 33.1313 51.9462 34.8533 51.9462 34.8533Z" fill="#292929"/>
    </symbol>
</svg>